<?xml version="1.0" encoding="UTF-8"?>
<svg id="_레이어_2" data-name="레이어 2" xmlns="http://www.w3.org/2000/svg" viewBox="0 0 95 7">
  <defs>
    <style>
      .cls-1 {
        fill: #3fa27e;
      }

      .cls-2 {
        fill: #d9e7ea;
      }

      .cls-3 {
        fill: #45bb89;
      }

      .cls-4 {
        fill: #98acb6;
      }

      .cls-5 {
        fill: #d3e7ea;
      }

      .cls-6 {
        fill: #51535f;
      }

      .cls-7 {
        fill: #c0d8dc;
      }

      .cls-8 {
        fill: #525760;
      }

      .cls-9 {
        fill: #bad7dc;
      }
    </style>
  </defs>
  <g id="_레이어_3" data-name="레이어 3">
    <g>
      <g>
        <g>
          <path class="cls-4" d="M76,63s0,0,0,0v-8s0,0,0,0,0,0,0,0v8s0,0,0,0Z"/>
          <path class="cls-4" d="M67,57s0,0,0,0c0,0,0,0,0,0l7-4s0,0,0,0c0,0,0,0,0,0l-7,4s0,0,0,0Z"/>
          <path class="cls-4" d="M74,5s0,0,0,0l-7-4s0,0,0,0c0,0,0,0,0,0l7,4s0,0,0,0c0,0,0,0,0,0Z"/>
          <path class="cls-4" d="M76,49s0,0,0,0v-8s0,0,0,0,0,0,0,0v8s0,0,0,0Z"/>
          <path class="cls-4" d="M78,5s0,0,0,0c0,0,0,0,0,0l7-4s0,0,0,0c0,0,0,0,0,0l-7,4s0,0,0,0Z"/>
          <path class="cls-4" d="M85,57s0,0,0,0l-7-4s0,0,0,0c0,0,0,0,0,0l7,4s0,0,0,0c0,0,0,0,0,0Z"/>
        </g>
        <path class="cls-3" d="M76,34c-1,0-18,8-18,17s8,18,18,18,17-8,17-18-8-17-17-17ZM76,62c-6,0-11-5-11-11s5-11,11-11,11,5,11,11-5,11-11,11Z"/>
        <g>
          <path class="cls-8" d="M76,69c-1,0-18-8-18-18s8-18,18-18,18,8,18,18-8,18-18,18ZM76,34c-9,0-17,8-17,17s8,17,17,17,17-8,17-17-8-17-17-17Z"/>
          <path class="cls-6" d="M76,7c-1,0-19-8-19-19s8-19,19-19,19,8,19,19-8,19-19,19ZM76,34c-1,0-18,8-18,18s8,18,18,18,18-8,18-18-8-18-18-18ZM76,69c-1,0-17-8-17-17s8-17,17-17,17,8,17,17-8,17-17,17ZM76,35c-9,0-16,7-16,16s7,16,16,16,16-7,16-16-7-16-16-16Z"/>
        </g>
        <path class="cls-1" d="M76,62c-6,0-11-5-11-11s5-11,11-11,11,5,11,11-5,11-11,11ZM76,41c-6,0-1,5-1,1s5,1,1,1,1-5,1-1-5-1-1-1Z"/>
      </g>
      <g>
        <g>
          <path class="cls-4" d="M19,63s0,0,0,0v-8s0,0,0,0,0,0,0,0v8s0,0,0,0Z"/>
          <path class="cls-4" d="M9,57s0,0,0,0c0,0,0,0,0,0l7-4s0,0,0,0c0,0,0,0,0,0l-7,4s0,0,0,0Z"/>
          <path class="cls-4" d="M16,5s0,0,0,0l-7-4s0,0,0,0c0,0,0,0,0,0l7,4s0,0,0,0c0,0,0,0,0,0Z"/>
          <path class="cls-4" d="M19,49s0,0,0,0v-8s0,0,0,0,0,0,0,0v8s0,0,0,0Z"/>
          <path class="cls-4" d="M21,5s0,0,0,0c0,0,0,0,0,0l7-4s0,0,0,0c0,0,0,0,0,0l-7,4s0,0,0,0Z"/>
          <path class="cls-4" d="M28,57s0,0,0,0l-7-4s0,0,0,0c0,0,0,0,0,0l7,4s0,0,0,0c0,0,0,0,0,0Z"/>
        </g>
        <path class="cls-3" d="M19,34c-1,0-18,8-18,17s8,18,18,18,17-8,17-18-8-17-17-17ZM19,62c-6,0-11-5-11-11s5-11,11-11,11,5,11,11-5,11-11,11Z"/>
        <g>
          <path class="cls-8" d="M19,69c-1,0-18-8-18-18s8-18,18-18,18,8,18,18-8,18-18,18ZM19,34c-9,0-17,8-17,17s8,17,17,17,17-8,17-17-8-17-17-17Z"/>
          <path class="cls-6" d="M19,7c-1,0-19-8-19-19s8-19,19-19,19,8,19,19-8,19-19,19ZM19,34c-1,0-18,8-18,18s8,18,18,18,18-8,18-18-8-18-18-18ZM19,69c-1,0-17-8-17-17s8-17,17-17,17,8,17,17-8,17-17,17ZM19,35c-9,0-16,7-16,16s7,16,16,16,16-7,16-16-7-16-16-16Z"/>
        </g>
        <path class="cls-1" d="M19,62c-6,0-11-5-11-11s5-11,11-11,11,5,11,11-5,11-11,11ZM19,41c-6,0-1,5-1,1s5,1,1,1,1-5,1-1-5-1-1-1Z"/>
      </g>
      <g>
        <path class="cls-8" d="M85,37c-2-1-5-2-8-2s-18,8-18,17h-1c0,0-2,0-2-2,0-11,1-19,2-19s6,0,8,2c0,0,1,1,0,2h0Z"/>
        <path class="cls-6" d="M59,53h-1c0,0-1,0-2,0,0,0,0,0,0-2,0-11,1-19,21-19s7,0,9,2c0,0,0,0,0,1,0,0,0,1,0,2h0c0,2,0,2,0,2-2-1-5-2-8-2-9,0-17,8-17,17s0,0,0,0ZM77,32c-1,0-19,8-2,18,0,0,0,0,0,0,0,0,0,0,0,0h0c0-1,8-17,18-17s6,0,8,2h0c0-1,0-1,0-2,0,0,0,0,0,0-2-1-5-2-8-2Z"/>
      </g>
      <g>
        <path class="cls-2" d="M69,23c-1-3-2-3-4-3s-2,0-3,1l-2,21s0,0,0,0l-6-16h-7s7,18,7,18c-1,1-2,3-2,5h-15c-4,0-4,6,0,6h17c1,1,3,2,5,2s7-3,7-7l17-18,7,2,6-2-9-26Z"/>
        <path class="cls-7" d="M41,56c-2,0-3,0-5-2h-17c-2,0-3-2-3-4s1-4,3-4h14c0-2,1-3,2-4l-7-18s0,0,0,0c0,0,0,0,0,0h7s0,0,0,0l6,16,2-2c0,0,2-1,3-1s3,0,4,3c0,0,0,0,0,0l9,26s0,0,0,0c0,0,0,0,0,0l-6,2s0,0,0,0l-7-19-16,17c0,4-4,7-8,7ZM19,49c-2,0-2,1-2,3s0,3,2,3h17s0,0,0,0c1,0,3,2,4,2s7-3,7-7c0,0,0,0,0,0l17-18s0,0,0,0c0,0,0,0,0,0l7,2,5-2-9-25c-1-2-2-2-3-2s-2,0-2,1l-2,21s0,0,0,0c0,0,0,0,0,0l-6-16h-6s6,17,6,17c0,0,0,0,0,0-1,1-2,3-2,4,0,0,0,0,0,0h-15Z"/>
      </g>
      <g>
        <circle class="cls-8" cx="41" cy="49" r="3"/>
        <path class="cls-6" d="M41,52c-2,0-4-2-4-4s2-4,4-4,4,2,4,4-2,4-4,4ZM41,46c-1,0-3,1-3,3s1,3,3,3,3-1,3-3-1-3-3-3Z"/>
      </g>
      <g>
        <path class="cls-5" d="M8,51c0-2-2-4-4-4s-4,2-4,4,2,4,4,4,4-2,4-4Z"/>
        <path class="cls-9" d="M76,55c-2,0-4-2-4-4s2-4,4-4,4,2,4,4-2,4-4,4ZM76,48c-2,0-3,1-3,3s1,3,3,3,3-1,3-3-1-3-3-3Z"/>
      </g>
      <g>
        <circle class="cls-8" cx="76" cy="51" r="2"/>
        <path class="cls-6" d="M76,53c-1,0-2,0-2-2s0-2,2-2,2,0,2,2,0,2-2,2ZM76,5c0,0,0,0,0,0s0,0,0,0,0,0,0,0,0,0,0,0Z"/>
      </g>
      <g>
        <path class="cls-5" d="M22,51c0-2-2-4-4-4s-4,2-4,4,2,4,4,4,4-2,4-4Z"/>
        <path class="cls-9" d="M19,55c-2,0-4-2-4-4s2-4,4-4,4,2,4,4-2,4-4,4ZM19,48c-2,0-3,1-3,3s1,3,3,3,3-1,3-3-1-3-3-3Z"/>
      </g>
      <g>
        <path class="cls-8" d="M2,51c0,0,0-2-2-2s-2,0-2,2,0,2,2,2,2,0,2-2Z"/>
        <path class="cls-6" d="M19,53c-1,0-2,0-2-2s0-2,2-2,2,0,2,2,0,2-2,2ZM19,5c0,0,0,0,0,0s0,0,0,0,0,0,0,0,0,0,0,0Z"/>
      </g>
      <g>
        <path class="cls-8" d="M25,26h18c0,0,1-1,1-2-1-2-6-2-12-3-3-3-4-3-7-2-2,1-4,4-1,6,0,0,0,0,2,0Z"/>
        <path class="cls-6" d="M43,26h-18c0,0-1,0-2,0,0,0-1-2-1-3,0-1,1-3,3-4,3-2,5,0,7,2h1c6,0,1,1,11,3,0,0,0,1,0,2,0,0,0,0-1,0ZM27,19c0,0-1,0-2,0-1,0-2,2-2,3,0,0,0,1,0,2,0,0,0,0,1,0h18s0,0,0,0c0,0,0,0,0,0,0-1-5-2-1-2h-2s0,0,0,0c-2-2-3-3-4-3Z"/>
      </g>
      <g>
        <path class="cls-8" d="M66,24h0c0,0-1,0-2,0l-5-13h2c0,0,5,12,5,12,0,0,0,1,0,2Z"/>
        <path class="cls-6" d="M66,25c0,0-1,0-2-1l-5-13s0,0,0,0h2c0-1,0,0,0,0l5,13s0,0,0,1c0,0,0,0-1,0h0s0,0,0,0ZM66,24h0,0ZM6,11l5,12s0,0,1,0c0,0,0,0,0-1l-5-12h-2Z"/>
      </g>
      <g>
        <path class="cls-8" d="M56,13c-2,0-4,0-6,0,0,0-1,0,0-2,0,0,0-1,2,0,4,1,8,0,1,0,2-1,3-4,3-7s0-1,1-1,1,0,1,1c0,4-1,7-4,9-2,1-4,2-6,2Z"/>
        <path class="cls-6" d="M56,14c-2,0-4,0-6,0,0,0,0,0-1,0,0,0,0,0,0-1,0,0,0,0,0-1s0,0,1,0c4,1,7,0,9,0,2-1,3-4,3-7s0-2,2-2,2,0,2,2c0,4-1,8-4,1-2,1-4,2-7,2ZM51,1s0,0,0,0c0,0,0,0,0,0,0,0,0,0,0,0,0,0,0,0,0,0,5,1,9,1,11,0,2-2,4-5,4-9s0,0,0,0,0,0,0,0c0,4,0,6-3,8-2,2-6,2-1,0,0,0,0,0,0,0Z"/>
      </g>
      <circle class="cls-8" cx="59" cy="31" r="2"/>
      <path class="cls-3" d="M56,32c0,0,0,0,0,0s0,0,0,0,0,0,0,0,0,0,0,0M56,31c-1,0-2,0-2,2s0,2,2,2,2,0,2-2,0-2-2-2h0Z"/>
      <g>
        <path class="cls-6" d="M84,18h-15c0,0-2,0-2-2v-7c0,0,0-1,1-2l15-3s0,0,1,0c0,0,0,0,0,1v1c0,0,0,2-2,2ZM84,6s0,0,0,0l-15,3s0,0,0,0v7s0,0,0,0h15s0,0,0,0V7s0,0,0,0c0,0,0,0,0,0Z"/>
        <path class="cls-6" d="M68,15s0,0,0,0c0,0,0,0,0,0h17s0,0,0,0c0,0,0,0,0,0,0,0,0,0,0,0h-17s0,0,0,0Z"/>
        <path class="cls-6" d="M68,11s0,0,0,0c0,0,0,0,0,0h17c0-1,0-1,0,0,0,0,0,0,0,0h-17c0,1,0,1,0,1Z"/>
        <path class="cls-6" d="M73,18s0,0,0,0V8s0,0,0,0,0,0,0,0v9s0,0,0,0Z"/>
        <path class="cls-6" d="M8,18s0,0,0,0V6s0,0,0,0,0,0,0,0v11s0,0,0,0Z"/>
      </g>
      <g>
        <path class="cls-8" d="M65,13h0c0,0,1,0,1,1v6c0,0,0,1-1,1h0c0,0-1,0-1-1v-6c0,0,0-1,1-1Z" transform="translate(53 -49) rotate(65)"/>
        <path class="cls-6" d="M63,2s0,0,0,0c0,0,0,0,0,0h0c0-1,0-2,0-3l5-2s0,0,1,0c0,0,0,0,0,0h0c0,0,0,1,0,2s0,0,0,0l-5,2s0,0,0,0ZM68,15s0,0,0,0l-5,2s0,0,0,0,0,0,0,0h0c0,0,0,0,0,0,0,0,0,0,0,0,0,0,0,0,0,0l5-2s0,0,0,0c0,0,0,0,0,0h0c0,0,0,0,0,0,0,0,0,0,0,0Z"/>
      </g>
    </g>
  </g>
</svg>